<?xml version="1.0" encoding="UTF-8" standalone="no"?>
<!-- Created with Inkscape (http://www.inkscape.org/) -->

<svg
   xmlns:dc="http://purl.org/dc/elements/1.1/"
   xmlns:cc="http://creativecommons.org/ns#"
   xmlns:rdf="http://www.w3.org/1999/02/22-rdf-syntax-ns#"
   xmlns:svg="http://www.w3.org/2000/svg"
   xmlns="http://www.w3.org/2000/svg"
   xmlns:sodipodi="http://sodipodi.sourceforge.net/DTD/sodipodi-0.dtd"
   xmlns:inkscape="http://www.inkscape.org/namespaces/inkscape"
   version="1.1"
   id="svg2"
   xml:space="preserve"
   width="180.772"
   height="210.00021"
   viewBox="0 0 180.772 210.00021"
   sodipodi:docname="Ministère de l'Agriculture, de la Pêche et de l'Alimentation (logo, 1995).svg"
   inkscape:version="0.92.2 (5c3e80d, 2017-08-06)"><metadata
     id="metadata8"><rdf:RDF><cc:Work
         rdf:about=""><dc:format>image/svg+xml</dc:format><dc:type
           rdf:resource="http://purl.org/dc/dcmitype/StillImage" /><dc:title></dc:title></cc:Work></rdf:RDF></metadata><defs
     id="defs6" /><sodipodi:namedview
     pagecolor="#ffffff"
     bordercolor="#666666"
     borderopacity="1"
     objecttolerance="10"
     gridtolerance="10"
     guidetolerance="10"
     inkscape:pageopacity="0"
     inkscape:pageshadow="2"
     inkscape:window-width="1920"
     inkscape:window-height="1017"
     id="namedview4"
     showgrid="false"
     fit-margin-left="5"
     fit-margin-top="5"
     fit-margin-bottom="5"
     fit-margin-right="5"
     inkscape:zoom="1.8779841"
     inkscape:cx="52.112891"
     inkscape:cy="8.5525519"
     inkscape:window-x="-8"
     inkscape:window-y="-8"
     inkscape:window-maximized="1"
     inkscape:current-layer="g4812" /><g
     id="g10"
     inkscape:groupmode="layer"
     inkscape:label="Plaquette BIO 05_97 (Page couv1)"
     transform="matrix(1.3333333,0,0,-1.3333333,-267.31901,229.54825)"><g
       id="g4772"
       transform="matrix(1.2300733,0,0,1.2300733,-61.72377,-19.751329)"><g
         id="g4812"
         transform="translate(5.2265)"><g
           id="g4955"
           transform="matrix(1.1121516,0,0,1.1121516,-29.50174,-10.317557)"><path
             d="m 238.516,74.132 h 59.856 v 59.856 h -59.856 z"
             style="fill:#ececec;fill-opacity:1;fill-rule:nonzero;stroke:none"
             id="path78"
             inkscape:connector-curvature="0"
             transform="translate(-5.2265013,2.850413e-6)" /><path
             d="m 262.024,102.954 c 1.409,0.255 2.126,3.622 2.126,3.622 -0.643,0.664 -0.4,2.034 -0.374,2.304 0.027,0.27 -0.065,0.758 -0.02,1.193 0.044,0.436 0.081,0.711 0.724,2.267 0.643,1.556 0.902,2.266 0.694,2.613 0.332,0.103 0.284,0.234 0.284,0.234 0.248,2.241 3.078,7.075 3.409,9.067 0.203,1.217 0.273,1.348 0.184,1.826 -0.747,1.95 -0.703,2.157 -0.715,2.732 0,0 -0.049,0.13 -0.121,0.192 0.208,0.104 0.072,0.436 0.072,0.436 -0.27,1.058 0.14,2.116 0.368,2.89 0,0 -0.344,1.074 -0.46,1.435 0.705,1.369 1.312,3.795 0.71,4.874 -0.602,1.079 -0.56,2.439 -0.705,2.751 -0.145,0.311 0.004,3.423 -0.11,4.598 -0.166,0.477 -0.722,0.832 -0.722,0.832 l -0.323,-0.251 c 0.038,0.028 -0.057,0.19 -0.057,0.19 -0.208,-0.104 -0.252,-0.292 -0.454,-0.526 l -0.084,0.108 c -0.176,-0.026 -0.225,-0.213 -0.225,-0.213 -0.54,-0.996 -0.786,-1.112 -0.786,-1.112 0.145,-0.104 0.109,-0.203 0.109,-0.203 -0.207,-0.062 -0.105,-0.042 -0.083,-0.353 -0.29,-0.186 -0.224,-0.414 -0.224,-0.414 -0.083,-0.726 -0.258,-0.846 -0.258,-0.846 -0.332,-0.145 -0.286,-0.487 -0.286,-0.487 -0.436,-1.826 -0.256,-3.253 -0.175,-4.321 0,0 0.362,-1.463 0.02,-1.782 -0.204,-0.19 -0.467,-0.51 -0.496,-1.088 0.145,-0.103 0.232,-0.04 0.108,-0.206 -0.125,-0.166 -0.176,-0.181 -0.27,-0.472 0,0 -1.237,-3.307 -1.26,-6.773 -0.022,-3.278 0.522,-4.577 0.522,-4.577 -0.124,-0.104 -0.005,-0.204 -0.129,-0.329 -0.125,-0.124 -0.137,-0.003 -0.137,-0.003 -0.062,-0.269 0.003,-0.153 0.06,-0.325 -1.141,-2.697 -1.313,-3.895 -1.334,-4.679 0,0 -0.195,-0.274 -0.278,-0.917 -0.083,-0.643 -0.183,-1.193 -0.388,-1.711 0.083,-0.602 -0.01,-1.017 -0.039,-1.391 -0.029,-0.373 -0.704,-2.595 -0.704,-2.595 0.249,-0.166 0.185,-0.465 0.185,-0.465 0,0 -0.12,-0.404 0.005,-0.653 0.124,-0.249 0.061,-0.136 0.007,-0.41 -0.054,-0.274 -0.157,-1.447 0.497,-2.961 0.964,-2.622 0.938,-2.92 0.909,-3.735 0.004,-0.27 0.049,-0.36 0.224,-0.366"
             style="fill:#057f85;fill-opacity:1;fill-rule:nonzero;stroke:none"
             id="path80"
             inkscape:connector-curvature="0"
             transform="translate(-5.2265013,2.850413e-6)" /><path
             d="m 269.846,100.826 c 0.156,0.555 0.42,1.228 -0.41,2.784 -0.257,0.54 -0.147,0.561 -0.22,0.872 -0.074,0.311 -0.208,1.307 -0.208,1.701 0.079,0.872 0.175,1.722 0.165,2.116 -0.009,0.395 -0.071,0.908 -0.071,0.908 0.434,0.825 0.942,1.582 0.734,3.802 -0.207,2.22 -0.266,2.458 0.087,4.325 -0.288,0.882 -0.274,3.351 -0.025,4.678 -0.097,0.208 0.076,0.26 0.076,0.26 -0.09,0.508 -0.056,1.38 0.359,1.919 0.062,0.358 0.009,0.726 0.154,1.017 0.145,0.29 0.099,1.743 0.306,2.884 0.208,1.141 0.205,1.576 0.413,2.053 -0.181,0.208 -0.189,0.451 -0.027,0.886 0.162,0.436 0.139,0.485 0.155,0.61 0,0 0.122,-0.023 0.148,0.024 0.078,0.368 0.408,1.722 0.506,2.075 0.099,0.353 0.445,1.934 0.455,2.1 0.01,0.166 0.109,0.487 0.153,0.587 0.044,0.099 0.296,1.125 2.097,3.116 0.196,0.301 0.99,1.26 1.13,1.353 0.026,-0.102 0.082,-0.096 0.253,-0.013 0.171,0.083 0.283,0.158 0.428,-0.071 0.145,-0.228 0.44,-0.853 0.486,-0.962 0.047,-0.109 -0.038,-0.228 -0.038,-0.228 0,0 -0.154,-0.566 0.24,-1.349 0.394,-0.784 0.634,-1.38 0.478,-1.976 0,0 0.222,-0.151 0.31,-0.332 0,-0.094 0.02,-0.114 -0.016,-0.275 -0.036,-0.161 -0.22,-1.172 -0.261,-1.706 -0.041,-0.535 -0.095,-1.385 -0.074,-1.816 0.021,-0.43 0.025,-2.126 0.025,-2.126 0,0 0.021,-1.857 -0.04,-2.511 -0.062,-0.653 -0.03,-1.131 -0.445,-2.397 -0.415,-1.265 -0.798,-1.777 -1.083,-2.69 -0.285,-0.913 -0.487,-1.733 -0.43,-2.713 0.057,-0.981 0.295,-1.861 0.295,-1.861 -0.076,-0.364 -0.251,-2.424 -0.251,-2.424 0,0 -0.32,-2.578 -0.527,-2.993 -0.207,-0.415 -0.316,-0.728 -1.472,-2.286 -1.113,-1.501 -1.159,-2.325 -1.194,-2.632 -0.055,-0.483 -0.131,-1.729 -0.048,-3.513 0.083,-1.784 -1.261,-2.915 -1.51,-2.998 -0.249,-0.083 -0.788,-0.264 -1.103,-0.198"
             style="fill:#057f85;fill-opacity:1;fill-rule:nonzero;stroke:none"
             id="path82"
             inkscape:connector-curvature="0"
             transform="translate(-5.2265013,2.850413e-6)" /><path
             d="m 281.158,128.978 c 0.138,0.716 0.154,1.499 0.444,3.698 0.291,2.199 0.559,3.252 0.834,3.527 0.275,0.276 0.498,0.581 1.079,0.83 0.581,0.249 0.557,-0.465 0.508,-0.797 -0.049,-0.332 -0.29,-5.09 0.415,-8.036 0.497,-0.954 0.214,-0.651 1.832,-3.14 0.398,-0.558 0.201,-0.733 0.454,-1.246 0.254,-0.513 0.225,-0.717 0.212,-1.386 -0.012,-0.67 -0.586,-2.585 -1.374,-3.207 0.733,-1.399 0.518,-1.399 0.604,-1.731 0.085,-0.332 -0.061,-1.222 0.063,-1.72 -0.723,-1.019 -1.046,-2.326 -1.101,-2.73 -0.054,-0.404 -0.398,-2.043 -0.532,-2.729 -0.135,-0.685 -0.703,-1.493 -0.703,-1.493 -0.32,-0.732 -0.572,-1.01 -0.738,-1.633 -0.166,-0.622 -0.979,-0.945 -0.979,-0.945 -0.363,-0.493 -0.486,-1.889 -0.597,-2.827 -0.11,-0.938 -0.358,-2.279 -1.229,-2.694 -0.872,-0.415 -1.714,-0.206 -1.714,-0.206 0.024,0.546 0.269,-0.078 -0.105,2.495 -0.286,1.038 0.059,2.159 0.189,3.196 0.13,1.038 0.875,6.006 1.043,7.002 0.168,0.995 0.221,3.745 -0.028,4.409 -0.249,0.663 -0.333,2.697 -0.333,4.273 0,1.577 0.233,2.526 0.814,3.605 0.105,0.503 0.038,0.161 0.121,0.949 -0.059,0.633 0.203,0.545 0.468,1.291 0.265,0.745 0.353,1.245 0.353,1.245"
             style="fill:#057f85;fill-opacity:1;fill-rule:nonzero;stroke:none"
             id="path84"
             inkscape:connector-curvature="0"
             transform="translate(-5.2265013,2.850413e-6)" /><path
             d="m 257.938,131.967 c 0.215,-0.442 0.554,-0.763 0.515,-1.759 -0.039,-0.996 -0.435,-2.082 -0.056,-3.041 0.379,-0.958 0.658,-1.441 0.534,-2.685 -0.105,-1.054 -0.3,-3.009 -0.217,-3.548 0.083,-0.54 -0.182,-0.468 0.524,-2.107 -0.101,-0.341 0.073,-1.088 0.073,-1.088 0.075,-0.208 -0.123,-0.44 -0.123,-0.44 0.219,-0.079 0.542,-0.432 -0.018,-2.341 -0.56,-1.908 -0.92,-1.84 -1.106,-2.857 -0.187,-1.016 -0.088,-2.558 -1.374,-2.849 -0.187,-0.144 -0.408,-1.279 -0.464,-1.715 -0.055,-0.436 -0.17,-3.122 -1.539,-4.118 -0.404,-0.161 -0.527,-0.115 -0.9,0.051 -0.084,0.204 -0.185,0.469 -0.6,0.178 -0.128,0.191 -0.19,0.253 -0.211,0.523 0.145,0.415 0.149,1.867 -0.245,4.73 -0.394,2.863 0.506,4.043 0.506,4.043 -0.137,0.355 0.062,1.58 -0.021,2.389 0,0 -0.087,-0.151 -0.066,0.222 0.021,0.373 0.154,1.54 0.321,1.929 0.167,0.388 0.858,2.935 1.187,3.838 0.33,0.904 0.803,2.084 1.404,3.184 -0.202,0.909 -0.182,3.067 0.586,4.768 0.139,-0.006 0.312,0.178 0.478,0.862 0.166,0.685 0.311,0.609 0.311,0.609 0,0 -0.037,0.391 0.295,0.599 0.332,0.207 0.206,0.623 0.206,0.623"
             style="fill:#057f85;fill-opacity:1;fill-rule:nonzero;stroke:none"
             id="path86"
             inkscape:connector-curvature="0"
             transform="translate(-5.2265013,2.850413e-6)" /><path
             d="m 231.039,101.131 c 0.456,0.125 4.676,0.737 7.269,0.791 0.602,0.07 1.909,0.031 2.469,0.072 0.56,0.042 0.586,-0.045 1.271,-0.098 0.684,-0.053 5.326,-0.347 7.546,-0.326 2.22,0.021 4.751,-0.145 4.751,-0.145 0.706,-0.039 1.411,-0.046 4.606,-0.669 3.194,-0.622 4.46,-0.825 6.369,-1.074 1.908,-0.249 2.241,-0.319 3.36,-0.746 1.121,-0.426 4.659,-1.859 6.361,-1.527 0.071,-0.458 -0.245,-1.157 -1.615,-1.593 -0.056,-0.11 -0.072,-0.226 -0.072,-0.226 -0.254,0.028 -0.632,0.125 -1.503,-0.414 -0.286,-0.154 -0.428,-0.074 -0.652,-0.15 -0.423,-0.17 -1.704,-0.576 -3.965,0.192 -2.262,0.768 -2.972,0.821 -2.972,0.821 -0.467,0.015 -0.954,-0.093 -1.494,0.041 -0.539,0.135 -1.203,0.342 -1.784,0.397 -0.581,0.054 -3.295,0.251 -3.586,0.268 -0.291,0.016 -0.376,0.075 -0.729,-0.05 -0.353,-0.124 -0.425,-0.002 -0.425,-0.002 -0.198,0.176 -0.301,0.196 -1.587,0.134 -1.287,-0.062 -3.544,0.302 -3.544,0.302 0.182,0.071 0.128,0.18 0.128,0.18 -0.361,0.03 -0.734,0.244 -1.439,0.057 -0.706,-0.187 -0.541,-0.088 -0.976,0.004 -0.435,0.091 -1.307,0.566 -4.709,0.753 -0.783,0.053 -2.697,0.248 -2.697,0.248 0,0 -1.41,0.175 -2.904,0.134 -0.769,-0.109 -0.419,-0.095 -1.577,-0.246 -1.121,-0.146 -2.967,0.289 -3.008,0.642 -0.141,0.138 -0.643,0.168 -0.643,0.168 -1.079,0.06 -2.22,0.143 -2.249,2.062"
             style="fill:#d16a1a;fill-opacity:1;fill-rule:nonzero;stroke:none"
             id="path88"
             inkscape:connector-curvature="0"
             transform="translate(-5.2265013,2.850413e-6)" /><path
             d="m 264.438,92.705 c -2.726,0.354 -6.583,0.948 -8.741,1.39 -2.158,0.443 -5.252,0.74 -8.796,0.866 -3.373,0.12 -7.269,0.487 -8.385,0.624 -1.116,0.138 -1.39,0.217 -2.365,0.383 -0.975,0.166 -1.349,0.178 -2.096,0.118 -0.747,-0.061 -1.369,-0.083 -1.826,-0.103 -0.456,-0.021 -0.4,0.125 -0.4,0.125 -0.611,-0.08 -3.147,-0.299 -4.019,-0.485 -0.871,-0.187 -0.543,-0.037 -0.543,-0.037 -0.224,0.033 -0.328,0.066 -0.639,-0.038 -0.156,-0.017 -0.387,0.104 -0.491,-0.166 0,0 -0.137,-0.133 -0.432,-0.21 -0.296,-0.077 -0.88,-0.112 -1.212,-0.423 0.205,-0.454 0.496,-2.239 2.487,-2.114 1.681,-0.082 3.279,-0.396 4.752,-0.064 0.954,-0.098 1.399,-0.128 2.208,-0.128 0.737,-0.139 0.8,-0.114 1.484,-0.093 0.353,0.037 0.663,-0.203 0.663,-0.203 0.312,-0.113 0.451,0.011 0.451,0.011 0.443,-0.106 0.584,-0.127 0.667,-0.231 0.083,-0.104 0.885,-0.07 1.59,-0.257 0.115,0.087 -0.056,0.308 3.429,-0.045 0.571,-0.176 1.221,-0.518 1.573,-0.186 0.631,0.012 2.187,-0.1 3.017,0.004 0,0 0.871,-0.216 2.469,-0.257 1.597,-0.042 1.784,0.099 2.863,-0.046 1.079,-0.145 1.846,-0.428 3.527,-0.635 0.684,0.035 0.602,0.004 2.033,-0.348 0.809,-0.109 1.535,-0.246 1.743,-0.267 0.207,-0.021 0.365,-0.029 0.407,-0.195 0.361,-0.007 0.381,-0.051 1.979,-0.279 0.539,-0.024 0.83,0.058 1.099,0.099 0.685,-0.076 1.018,-0.274 2.512,0.514 0.508,0.348 1.83,1.392 1.996,1.621 0.166,0.228 -0.049,0.266 0.154,0.426 0.203,0.16 0.313,0.227 0.313,0.227 0.13,0.163 0.067,0.243 -0.203,0.243 -0.27,-0.001 -2.012,0.01 -3.268,0.159"
             style="fill:#d16a1a;fill-opacity:1;fill-rule:nonzero;stroke:none"
             id="path90"
             inkscape:connector-curvature="0"
             transform="translate(-5.2265013,2.850413e-6)" /><path
             d="m 222.524,89.326 c 1.458,0.258 1.502,0.671 8.03,0.229 0.804,0.01 0.832,-0.1 2.213,-0.019 1.381,0.081 2.341,0.256 4.049,0.075 1.709,-0.181 2.463,-0.232 3.431,-0.647 0.968,-0.415 5.025,-0.625 5.687,-0.616 0.662,0.009 5.09,-0.052 6.75,-0.522 0.996,-0.165 2.207,-0.332 2.899,-0.332 0.691,0 4.233,-0.23 5.063,-0.562 0.242,-0.069 0.606,-0.096 0.55,-0.428 -0.055,-0.332 -0.232,-0.655 -0.564,-0.82 -0.598,-0.569 -1.159,-1.172 -2.293,-1.532 -0.592,-0.23 -0.992,-0.142 -1.324,-0.059 -0.706,-0.198 -1.703,-0.093 -1.924,0.128 -0.663,-0.133 -1.378,-0.065 -1.793,0.074 -0.415,0.138 -0.585,0.118 -1.14,0.166 -0.555,0.049 -2.528,0.155 -3.855,0.293 -1.328,0.139 -3.697,-0.13 -5.108,-0.019 -1.41,0.11 -2.5,0.556 -2.5,0.556 -0.907,0.189 -0.563,0.158 -1.372,0.203 -0.809,0.045 -1.016,0.028 -1.265,0.138 -0.903,-0.193 -1.474,-0.386 -3.742,-0.275 -1.354,0.253 -2.146,0.618 -3.059,0.673 -0.913,0.055 -1.063,0.456 -3.331,0.511 -0.883,-0.074 -0.883,0.205 -1.549,0.239 -0.665,0.034 -2.006,0.083 -2.006,0.083 -0.151,-0.152 -0.402,-0.232 -0.734,-0.066 -0.332,0.166 -0.284,0.112 -0.754,0.195 -0.819,0.36 -2.527,1.929 -0.359,2.334"
             style="fill:#d16a1a;fill-opacity:1;fill-rule:nonzero;stroke:none"
             id="path92"
             inkscape:connector-curvature="0"
             transform="translate(-5.2265013,2.850413e-6)" /><path
             d="m 299.929,102.985 c -0.913,0.373 -2.286,0.771 -4.029,0.435 -1.675,-0.322 -3.083,-0.964 -4.044,-1.663 -0.961,-0.698 -2.863,-2.111 -3.361,-2.448 -0.498,-0.337 -1.37,-0.783 -2.221,-0.928 -0.85,-0.145 -3.922,-0.812 -6.183,-2.555 -2.261,-1.743 -2.29,-2.413 -2.744,-2.976 -0.455,-0.562 -1.321,-1.534 -3.064,-2.281 -1.742,-0.747 -3.239,-0.67 -4.712,-2.35 -1.473,-1.681 -1.909,-2.452 -2.64,-3.5 -0.162,-0.233 -0.565,-0.757 -1.57,-1.351 -1.005,-0.593 -3.049,-1.562 -4.605,-3.222 -0.249,-0.29 -1.079,-1.385 2.24,-1.115 0.851,0.099 2.285,0.663 3.779,0.766 0.125,0.009 0.575,0.024 0.575,0.024 0.544,0.417 2.659,2.006 3.821,3.486 0.207,0.373 0.248,0.574 0.29,0.906 0.34,0.402 1.706,2.189 2.847,3.123 0.212,0.167 0.149,0.278 0.481,0.36 1.879,0.376 4.64,1.282 6.279,3.896 0.263,0.491 0.689,1.125 1.511,1.746 0.823,0.621 1.267,1.35 4.483,2.159 0.622,0.112 1.618,0.174 2.221,0.483 0.603,0.309 1.622,1.013 2.203,1.2 0.581,0.187 0.311,0.136 0.311,0.136 0.058,0.34 0.556,0.631 1.033,0.859 0.199,0.423 0.18,0.957 2.608,2.077 2.427,1.12 2.164,0.726 4.363,2.22 -0.18,0.077 -0.187,0.101 -0.187,0.164 0,0.062 0.315,0.349 0.315,0.349"
             style="fill:#3774b5;fill-opacity:1;fill-rule:nonzero;stroke:none"
             id="path94"
             inkscape:connector-curvature="0"
             transform="translate(-5.2265013,2.850413e-6)" /><path
             d="m 271.466,79.519 c 0.204,0.143 0.248,0.169 0.769,0.562 0.886,0.667 1.467,0.688 2.621,2.06 1.079,1.282 0.94,2.222 2.105,3.086 1.004,0.744 1.072,1.029 5.159,2.709 1.332,0.696 2.209,1.535 2.915,2.967 0.705,1.431 1.727,2.919 5.897,3.811 1.198,0.302 2.738,0.534 4.665,1.858 1.927,1.324 5.469,4.39 7.149,4.763 0.685,0.18 1.204,0.311 1.556,0.287 0.353,-0.024 1.059,0.006 1.495,0.006 0.435,0 0.831,-0.241 0.837,-0.567 0.006,-0.327 -0.09,-0.231 0.18,-0.667 -0.271,-0.31 -0.976,-0.569 -1.329,-0.673 -0.353,-0.104 -0.815,-0.16 -1.177,-0.338 -0.362,-0.179 -0.46,-0.104 -0.743,-0.408 -0.282,-0.304 -0.497,-0.607 -0.497,-0.607 -0.301,-0.069 -0.644,-0.379 -0.914,-0.856 -0.27,-0.477 -0.417,-0.308 -0.625,-0.453 0,0 -0.125,-0.571 -0.955,-1.048 -0.829,-0.478 -0.892,-0.722 -0.892,-0.722 -0.576,-0.154 -0.835,-0.118 -2.515,-1.487 -0.603,-0.419 -1.35,-0.863 -3.902,-1.361 -2.552,-0.498 -3.495,-0.771 -4.428,-2.036 -0.405,-0.466 -0.491,-1.046 -0.948,-1.772 -0.456,-0.726 -0.349,-1.19 -1.49,-2.186 -1.141,-0.996 -3.568,-1.562 -4.269,-1.897 -0.701,-0.336 -2.151,-0.585 -2.897,-2.784 -0.118,-0.213 -0.321,-0.351 -0.456,-0.672 -0.136,-0.321 -0.39,-0.866 -0.628,-1.106 -0.238,-0.24 -2.809,-2.171 -6.605,-1.134 -0.353,0.131 -0.509,0.412 -0.078,0.665"
             style="fill:#3774b5;fill-opacity:1;fill-rule:nonzero;stroke:none"
             id="path96"
             inkscape:connector-curvature="0"
             transform="translate(-5.2265013,2.850413e-6)" /><path
             d="m 315.042,100.933 c 0.058,-0.498 0.277,-1.347 -1.098,-1.942 -1.321,-0.571 -1.03,-0.886 -1.134,-1.239 -0.421,-0.21 -0.411,-0.189 -0.909,-0.625 -0.497,-0.436 -0.586,-0.384 -0.63,-0.427 0.272,-0.102 0.128,-0.128 0.128,-0.128 -0.333,-0.16 -1.484,-0.923 -1.685,-1.447 -0.202,-0.525 -0.329,-0.704 -0.53,-0.924 -0.2,-0.219 -1.026,-0.857 -1.603,-1.26 -0.577,-0.403 -1.219,-0.834 -1.489,-1.166 -1.286,-0.235 -2.486,-0.222 -4.643,-2.006 -0.76,-0.719 -1.682,-1.558 -2.055,-1.765 -0.26,-0.344 -0.832,-1.221 -3.259,-2.093 -0.878,-0.205 -1.198,-0.466 -1.359,-0.601 -0.16,-0.135 -1.317,-1.021 -1.607,-1.29 -0.291,-0.27 -1.229,-1.205 -3.324,-3.632 -0.151,-0.176 -1.225,-1.414 -1.225,-1.414 -0.562,-0.404 -3.715,-2.168 -7.31,-1.462 -0.167,0.195 -0.098,0.228 -0.098,0.228 -0.374,-0.021 -0.596,0.105 -0.596,0.105 0.492,0.704 1.898,1.243 2.541,1.471 0.643,0.228 1.797,0.972 2.112,1.395 0.314,0.422 1.57,2.252 2.441,3.165 0.872,0.913 1.94,2.532 4.16,3.776 0.259,0.135 0.234,0.299 0.753,0.278 0.497,0.079 0.864,0.282 1.341,1.216 0.478,0.933 0.612,1.042 1.041,1.293 0.43,0.25 1.74,1.208 3.566,1.955 1.825,0.746 1.675,0.612 1.675,0.612 0.43,0.128 1.035,0.517 1.36,0.681 0.325,0.165 2.728,1.402 3.703,2.315 0.975,0.913 2.09,1.852 3.397,2.723 1.307,0.872 2.36,1.442 3.854,1.732 1.455,0.283 2.482,0.476 2.482,0.476"
             style="fill:#3774b5;fill-opacity:1;fill-rule:nonzero;stroke:none"
             id="path98"
             inkscape:connector-curvature="0"
             transform="translate(-5.2265013,2.850413e-6)" /><g
             id="g4838"
             transform="translate(-5.2265013,2.850413e-6)"><path
               inkscape:connector-curvature="0"
               id="path100"
               style="fill:#656363;fill-opacity:1;fill-rule:nonzero;stroke:none"
               d="m 238.49,65.985 c 0,0.253 -0.089,0.309 -0.168,0.389 h 1.178 l 1.214,-3.185 1.225,3.185 h 1.11 c -0.079,-0.08 -0.169,-0.136 -0.169,-0.389 v -3.736 c 0,-0.247 0.095,-0.309 0.169,-0.389 h -1.126 c 0.069,0.08 0.169,0.142 0.169,0.389 v 3.043 h -0.011 l -1.304,-3.432 h -0.378 l -1.346,3.457 h -0.011 v -3.068 c 0,-0.247 0.095,-0.309 0.168,-0.389 h -0.888 c 0.068,0.08 0.168,0.142 0.168,0.389 v 3.736" /><path
               inkscape:connector-curvature="0"
               id="path102"
               style="fill:#656363;fill-opacity:1;fill-rule:nonzero;stroke:none"
               d="m 247.681,65.985 c 0,0.253 -0.089,0.309 -0.168,0.389 h 1.125 c -0.079,-0.08 -0.168,-0.136 -0.168,-0.389 v -3.736 c 0,-0.247 0.094,-0.309 0.168,-0.389 h -1.125 c 0.068,0.08 0.168,0.142 0.168,0.389 v 3.736" /><path
               inkscape:connector-curvature="0"
               id="path104"
               style="fill:#656363;fill-opacity:1;fill-rule:nonzero;stroke:none"
               d="m 253.286,65.985 c 0,0.253 -0.09,0.309 -0.169,0.389 h 1.01 l 1.887,-3.117 h 0.011 v 2.728 c 0,0.253 -0.095,0.303 -0.168,0.389 h 0.888 c -0.073,-0.08 -0.168,-0.142 -0.168,-0.389 V 61.86 h -0.684 l -2.045,3.364 h -0.01 v -2.975 c 0,-0.247 0.094,-0.309 0.168,-0.389 h -0.889 c 0.069,0.08 0.169,0.142 0.169,0.389 v 3.736" /><path
               inkscape:connector-curvature="0"
               id="path106"
               style="fill:#656363;fill-opacity:1;fill-rule:nonzero;stroke:none"
               d="m 261.394,65.985 c 0,0.253 -0.089,0.309 -0.168,0.389 h 1.125 c -0.079,-0.08 -0.168,-0.136 -0.168,-0.389 v -3.736 c 0,-0.247 0.094,-0.309 0.168,-0.389 h -1.125 c 0.068,0.08 0.168,0.142 0.168,0.389 v 3.736" /><path
               inkscape:connector-curvature="0"
               id="path108"
               style="fill:#656363;fill-opacity:1;fill-rule:nonzero;stroke:none"
               d="m 266.788,63.189 c 0.179,-0.303 0.584,-0.773 1.22,-0.773 0.421,0 0.705,0.204 0.705,0.594 0,0.952 -1.988,0.501 -1.988,2.103 0,0.797 0.579,1.354 1.399,1.354 0.531,0 0.841,-0.291 0.993,-0.291 0.079,0 0.106,0.118 0.148,0.149 v -1.28 c -0.184,0.352 -0.642,0.773 -1.126,0.773 -0.352,0 -0.625,-0.235 -0.625,-0.631 0,-0.878 1.987,-0.489 1.987,-2.029 0,-0.841 -0.583,-1.391 -1.44,-1.391 -0.547,0 -1.015,0.315 -1.126,0.315 -0.063,0 -0.094,-0.105 -0.147,-0.142 v 1.249" /><path
               inkscape:connector-curvature="0"
               id="path110"
               style="fill:#656363;fill-opacity:1;fill-rule:nonzero;stroke:none"
               d="m 274.765,65.725 h -0.757 c -0.29,0 -0.295,-0.179 -0.384,-0.278 v 0.927 h 3.07 v -0.927 c -0.089,0.099 -0.094,0.278 -0.384,0.278 h -0.757 v -3.476 c 0,-0.247 0.095,-0.309 0.169,-0.389 h -1.126 c 0.069,0.08 0.169,0.142 0.169,0.389 v 3.476" /><path
               inkscape:connector-curvature="0"
               id="path112"
               style="fill:#656363;fill-opacity:1;fill-rule:nonzero;stroke:none"
               d="m 281.101,65.985 c 0,0.253 -0.09,0.309 -0.169,0.389 h 2.566 v -0.866 c -0.11,0.118 -0.095,0.217 -0.463,0.217 h -1.146 v -1.218 h 1.062 c 0.305,0 0.3,0.08 0.384,0.191 v -1.032 c -0.11,0.142 -0.142,0.191 -0.384,0.191 h -1.062 v -1.348 h 1.236 c 0.368,0 0.352,0.099 0.462,0.217 V 61.86 h -2.655 c 0.074,0.08 0.169,0.136 0.169,0.389 z m 0.241,1.045 0.079,0.563 1.346,-0.489 -0.063,-0.365 -1.362,0.291" /><path
               inkscape:connector-curvature="0"
               id="path114"
               style="fill:#656363;fill-opacity:1;fill-rule:nonzero;stroke:none"
               d="m 288.146,65.985 c 0,0.253 -0.089,0.309 -0.168,0.389 h 1.404 c 1.151,0 1.745,-0.334 1.745,-1.373 0,-0.346 -0.268,-0.927 -0.815,-1.119 l 0.768,-1.571 c 0.137,-0.278 0.226,-0.346 0.331,-0.451 h -1.014 l -0.836,1.824 h -0.626 v -1.435 c 0,-0.247 0.095,-0.309 0.168,-0.389 h -1.125 c 0.068,0.08 0.168,0.142 0.168,0.389 z m 1.267,-1.652 c 0.663,0 0.926,0.217 0.926,0.656 0,0.507 -0.274,0.736 -0.941,0.736 h -0.463 v -1.392 h 0.478" /><path
               inkscape:connector-curvature="0"
               id="path116"
               style="fill:#656363;fill-opacity:1;fill-rule:nonzero;stroke:none"
               d="m 295.787,65.985 c 0,0.253 -0.09,0.309 -0.169,0.389 h 2.566 v -0.866 c -0.11,0.118 -0.094,0.217 -0.463,0.217 h -1.146 v -1.218 h 1.062 c 0.305,0 0.3,0.08 0.384,0.191 v -1.032 c -0.11,0.142 -0.142,0.191 -0.384,0.191 h -1.062 v -1.348 h 1.236 c 0.368,0 0.352,0.099 0.463,0.217 V 61.86 h -2.656 c 0.074,0.08 0.169,0.136 0.169,0.389 v 3.736" /><path
               inkscape:connector-curvature="0"
               id="path118"
               style="fill:#656363;fill-opacity:1;fill-rule:nonzero;stroke:none"
               d="m 238.494,53.688 c 0,0.253 -0.09,0.309 -0.168,0.389 h 1.114 c 1.525,0 2.419,-0.742 2.419,-2.374 0,-0.347 0,-2.14 -2.419,-2.14 h -1.114 c 0.078,0.074 0.168,0.142 0.168,0.389 z m 0.788,-3.476 c 0.694,0 1.788,0.099 1.788,1.608 0,1.558 -1.088,1.608 -1.788,1.608 v -3.216" /><path
               inkscape:connector-curvature="0"
               id="path120"
               style="fill:#656363;fill-opacity:1;fill-rule:nonzero;stroke:none"
               d="m 243.236,53.688 c 0,0.253 -0.089,0.309 -0.168,0.389 h 2.566 v -0.866 c -0.111,0.118 -0.095,0.217 -0.463,0.217 h -1.146 V 52.21 h 1.062 c 0.305,0 0.3,0.08 0.384,0.191 v -1.032 c -0.111,0.142 -0.142,0.191 -0.384,0.191 h -1.062 v -1.348 h 1.235 c 0.368,0 0.353,0.099 0.463,0.217 v -0.866 h -2.655 c 0.074,0.08 0.168,0.136 0.168,0.389 v 3.736" /><path
               inkscape:connector-curvature="0"
               id="path122"
               style="fill:#656363;fill-opacity:1;fill-rule:nonzero;stroke:none"
               d="m 249.519,53.688 c 0,0.253 -0.089,0.309 -0.168,0.389 h 1.125 c -0.079,-0.08 -0.168,-0.136 -0.168,-0.389 v -3.476 h 1.146 c 0.384,0 0.384,0.074 0.484,0.198 v -0.847 h -2.587 c 0.068,0.08 0.168,0.142 0.168,0.389 v 3.736" /><path
               inkscape:connector-curvature="0"
               id="path124"
               style="fill:#656363;fill-opacity:1;fill-rule:nonzero;stroke:none"
               d="m 252.868,52.605 c 0.269,0.291 0.326,0.402 0.437,0.699 -0.121,0 -0.41,0.037 -0.41,0.408 0,0.242 0.147,0.458 0.373,0.458 0.237,0 0.41,-0.241 0.41,-0.581 0,-0.687 -0.463,-1.083 -0.62,-1.237 l -0.19,0.253" /><path
               inkscape:connector-curvature="0"
               id="path126"
               style="fill:#656363;fill-opacity:1;fill-rule:nonzero;stroke:none"
               d="m 255.886,53.434 c 0.042,0.124 0.115,0.297 0.115,0.445 0,0.087 -0.068,0.13 -0.131,0.198 h 0.988 l 1.283,-3.945 c 0.126,-0.39 0.2,-0.476 0.305,-0.569 h -1.157 c 0.032,0.037 0.116,0.105 0.116,0.185 0,0.124 -0.053,0.235 -0.089,0.353 l -0.258,0.798 h -1.414 l -0.237,-0.743 c -0.037,-0.117 -0.095,-0.29 -0.095,-0.389 0,-0.099 0.095,-0.161 0.132,-0.204 h -0.968 c 0.095,0.117 0.2,0.235 0.316,0.587 z m 0.998,-1.948 -0.536,1.657 -0.526,-1.657 h 1.062" /><path
               inkscape:connector-curvature="0"
               id="path128"
               style="fill:#656363;fill-opacity:1;fill-rule:nonzero;stroke:none"
               d="m 262.569,49.921 c -0.432,-0.272 -0.757,-0.451 -1.331,-0.451 -1.409,0 -1.961,1.126 -1.961,2.387 0,1.416 0.936,2.313 1.883,2.313 0.662,0 0.941,-0.315 1.125,-0.315 0.094,0 0.1,0.117 0.142,0.148 v -1.311 c -0.2,0.297 -0.516,0.829 -1.11,0.829 -0.731,0 -1.251,-0.73 -1.251,-1.769 0,-0.785 0.405,-1.633 1.188,-1.633 0.237,0 0.384,0.087 0.526,0.143 v 0.896 c 0,0.254 -0.1,0.316 -0.168,0.396 h 1.125 c -0.074,-0.08 -0.168,-0.142 -0.168,-0.39 v -1.243" /><path
               inkscape:connector-curvature="0"
               id="path130"
               style="fill:#656363;fill-opacity:1;fill-rule:nonzero;stroke:none"
               d="m 263.989,53.688 c 0,0.253 -0.09,0.309 -0.169,0.389 h 1.404 c 1.152,0 1.746,-0.334 1.746,-1.373 0,-0.346 -0.268,-0.927 -0.815,-1.119 l 0.767,-1.571 c 0.137,-0.278 0.226,-0.346 0.332,-0.451 h -1.015 l -0.836,1.824 h -0.626 v -1.435 c 0,-0.247 0.095,-0.309 0.168,-0.389 h -1.125 c 0.069,0.08 0.169,0.142 0.169,0.389 z m 1.267,-1.652 c 0.662,0 0.925,0.217 0.925,0.656 0,0.507 -0.273,0.736 -0.941,0.736 h -0.463 v -1.392 h 0.479" /><path
               inkscape:connector-curvature="0"
               id="path132"
               style="fill:#656363;fill-opacity:1;fill-rule:nonzero;stroke:none"
               d="m 268.426,53.688 c 0,0.253 -0.089,0.309 -0.168,0.389 h 1.125 c -0.078,-0.08 -0.168,-0.136 -0.168,-0.389 v -3.736 c 0,-0.247 0.095,-0.309 0.168,-0.389 h -1.125 c 0.069,0.08 0.168,0.142 0.168,0.389 v 3.736" /><path
               inkscape:connector-curvature="0"
               id="path134"
               style="fill:#656363;fill-opacity:1;fill-rule:nonzero;stroke:none"
               d="m 273.447,49.754 c -0.032,0.044 -0.048,0.081 -0.111,0.081 -0.147,0 -0.415,-0.365 -1.046,-0.365 -0.794,0 -1.703,0.785 -1.703,2.35 0,1.49 0.899,2.35 1.729,2.35 0.516,0 0.694,-0.229 0.852,-0.229 0.089,0 0.11,0.074 0.153,0.112 v -1.169 c -0.137,0.21 -0.342,0.637 -0.836,0.637 -0.721,0 -1.11,-0.786 -1.11,-1.763 0,-0.878 0.389,-1.639 1.068,-1.639 0.494,0 0.888,0.569 1.004,0.705 v -1.07" /><path
               inkscape:connector-curvature="0"
               id="path136"
               style="fill:#656363;fill-opacity:1;fill-rule:nonzero;stroke:none"
               d="m 274.766,53.688 c 0,0.241 -0.089,0.309 -0.168,0.389 h 1.125 c -0.073,-0.08 -0.168,-0.142 -0.168,-0.389 v -2.289 c 0,-0.754 0.037,-1.28 0.831,-1.28 0.778,0 0.815,0.613 0.815,1.28 v 2.289 c 0,0.241 -0.1,0.315 -0.168,0.389 h 0.888 c -0.074,-0.08 -0.168,-0.142 -0.168,-0.389 v -2.289 c 0,-1.181 -0.242,-1.929 -1.441,-1.929 -1.072,0 -1.546,0.427 -1.546,1.929 v 2.289" /><path
               inkscape:connector-curvature="0"
               id="path138"
               style="fill:#656363;fill-opacity:1;fill-rule:nonzero;stroke:none"
               d="m 279.362,53.688 c 0,0.253 -0.089,0.309 -0.168,0.389 h 1.125 c -0.079,-0.08 -0.168,-0.136 -0.168,-0.389 v -3.476 h 1.146 c 0.384,0 0.384,0.074 0.484,0.198 v -0.847 h -2.587 c 0.068,0.08 0.168,0.142 0.168,0.389 v 3.736" /><path
               inkscape:connector-curvature="0"
               id="path140"
               style="fill:#656363;fill-opacity:1;fill-rule:nonzero;stroke:none"
               d="m 283.647,53.428 h -0.757 c -0.289,0 -0.294,-0.179 -0.383,-0.278 v 0.927 h 3.07 V 53.15 c -0.089,0.099 -0.095,0.278 -0.384,0.278 h -0.757 v -3.476 c 0,-0.247 0.095,-0.309 0.168,-0.389 h -1.125 c 0.069,0.08 0.168,0.142 0.168,0.389 v 3.476" /><path
               inkscape:connector-curvature="0"
               id="path142"
               style="fill:#656363;fill-opacity:1;fill-rule:nonzero;stroke:none"
               d="m 286.755,53.688 c 0,0.241 -0.09,0.309 -0.169,0.389 h 1.125 c -0.073,-0.08 -0.168,-0.142 -0.168,-0.389 v -2.289 c 0,-0.754 0.037,-1.28 0.831,-1.28 0.778,0 0.815,0.613 0.815,1.28 v 2.289 c 0,0.241 -0.1,0.315 -0.168,0.389 h 0.888 c -0.073,-0.08 -0.168,-0.142 -0.168,-0.389 v -2.289 c 0,-1.181 -0.242,-1.929 -1.441,-1.929 -1.072,0 -1.545,0.427 -1.545,1.929 v 2.289" /><path
               inkscape:connector-curvature="0"
               id="path144"
               style="fill:#656363;fill-opacity:1;fill-rule:nonzero;stroke:none"
               d="m 291.34,53.688 c 0,0.253 -0.089,0.309 -0.168,0.389 h 1.403 c 1.152,0 1.746,-0.334 1.746,-1.373 0,-0.346 -0.268,-0.927 -0.815,-1.119 l 0.768,-1.571 c 0.136,-0.278 0.226,-0.346 0.331,-0.451 h -1.015 l -0.836,1.824 h -0.625 v -1.435 c 0,-0.247 0.094,-0.309 0.168,-0.389 h -1.125 c 0.068,0.08 0.168,0.142 0.168,0.389 z m 1.267,-1.652 c 0.663,0 0.925,0.217 0.925,0.656 0,0.507 -0.273,0.736 -0.941,0.736 h -0.462 v -1.392 h 0.478" /><path
               inkscape:connector-curvature="0"
               id="path146"
               style="fill:#656363;fill-opacity:1;fill-rule:nonzero;stroke:none"
               d="m 295.794,53.688 c 0,0.253 -0.09,0.309 -0.169,0.389 h 2.566 v -0.866 c -0.11,0.118 -0.095,0.217 -0.463,0.217 h -1.146 V 52.21 h 1.062 c 0.305,0 0.3,0.08 0.384,0.191 v -1.032 c -0.11,0.142 -0.142,0.191 -0.384,0.191 h -1.062 v -1.348 h 1.236 c 0.368,0 0.352,0.099 0.462,0.217 v -0.866 h -2.655 c 0.074,0.08 0.169,0.136 0.169,0.389 v 3.736" /></g><g
             transform="translate(-6.517623)"
             id="g4866"><g
               id="g4850"
               transform="translate(16.462433)"><path
                 inkscape:connector-curvature="0"
                 id="path158"
                 style="fill:#656363;fill-opacity:1;fill-rule:nonzero;stroke:none"
                 d="m 263.288,41.391 c 0,0.253 -0.089,0.309 -0.168,0.389 h 2.566 v -0.866 c -0.111,0.118 -0.095,0.217 -0.463,0.217 h -1.146 v -1.218 h 1.062 c 0.305,0 0.299,0.08 0.384,0.191 v -1.032 c -0.111,0.142 -0.142,0.191 -0.384,0.191 h -1.062 v -1.348 h 1.235 c 0.368,0 0.353,0.099 0.463,0.217 v -0.866 h -2.655 c 0.073,0.08 0.168,0.136 0.168,0.389 z m 0.1,1.088 1.041,0.581 1.009,-0.587 -0.136,-0.328 -0.889,0.377 -0.909,-0.371 -0.116,0.328" /><g
                 id="g4797"><path
                   d="m 238.481,41.391 c 0,0.253 -0.089,0.309 -0.168,0.389 h 1.114 c 1.525,0 2.419,-0.742 2.419,-2.374 0,-0.347 0,-2.14 -2.419,-2.14 h -1.114 c 0.079,0.074 0.168,0.142 0.168,0.389 z m 0.789,-3.476 c 0.694,0 1.787,0.099 1.787,1.608 0,1.558 -1.088,1.608 -1.787,1.608 v -3.216"
                   style="fill:#656363;fill-opacity:1;fill-rule:nonzero;stroke:none"
                   id="path148"
                   inkscape:connector-curvature="0" /><path
                   d="m 243.123,41.391 c 0,0.253 -0.089,0.309 -0.168,0.389 h 2.566 v -0.866 c -0.11,0.118 -0.095,0.217 -0.463,0.217 h -1.146 v -1.218 h 1.062 c 0.305,0 0.3,0.08 0.384,0.191 v -1.032 c -0.11,0.142 -0.142,0.191 -0.384,0.191 h -1.062 v -1.348 h 1.236 c 0.368,0 0.352,0.099 0.462,0.217 v -0.866 h -2.655 c 0.074,0.08 0.168,0.136 0.168,0.389 v 3.736"
                   style="fill:#656363;fill-opacity:1;fill-rule:nonzero;stroke:none"
                   id="path150"
                   inkscape:connector-curvature="0" /><path
                   d="m 249.101,41.391 c 0,0.253 -0.089,0.309 -0.168,0.389 h 1.125 c -0.079,-0.08 -0.168,-0.136 -0.168,-0.389 v -3.476 h 1.146 c 0.384,0 0.384,0.074 0.484,0.198 v -0.847 h -2.587 c 0.068,0.08 0.168,0.142 0.168,0.389 v 3.736"
                   style="fill:#656363;fill-opacity:1;fill-rule:nonzero;stroke:none"
                   id="path152"
                   inkscape:connector-curvature="0" /><path
                   d="m 253.46,41.137 c 0.042,0.124 0.116,0.297 0.116,0.445 0,0.087 -0.069,0.13 -0.132,0.198 h 0.989 l 1.283,-3.945 c 0.126,-0.39 0.199,-0.476 0.305,-0.569 h -1.157 c 0.031,0.037 0.116,0.105 0.116,0.185 0,0.124 -0.053,0.235 -0.09,0.353 l -0.257,0.798 h -1.415 l -0.236,-0.743 c -0.037,-0.117 -0.095,-0.29 -0.095,-0.389 0,-0.099 0.095,-0.161 0.131,-0.204 h -0.967 c 0.095,0.117 0.2,0.235 0.316,0.587 z m 0.999,-1.948 -0.536,1.657 -0.526,-1.657 h 1.062"
                   style="fill:#656363;fill-opacity:1;fill-rule:nonzero;stroke:none"
                   id="path154"
                   inkscape:connector-curvature="0" /><path
                   d="m 259.223,41.391 c 0,0.253 -0.089,0.309 -0.168,0.389 h 1.404 c 1.088,0 1.666,-0.334 1.666,-1.373 0,-1.125 -0.804,-1.428 -1.608,-1.428 h -0.505 v -1.324 c 0,-0.247 0.095,-0.309 0.168,-0.389 h -1.125 c 0.068,0.08 0.168,0.142 0.168,0.389 z m 1.267,-1.763 c 0.579,0 0.847,0.254 0.847,0.767 0,0.495 -0.305,0.736 -0.862,0.736 h -0.463 v -1.503 h 0.478"
                   style="fill:#656363;fill-opacity:1;fill-rule:nonzero;stroke:none"
                   id="path156"
                   inkscape:connector-curvature="0" /><path
                   d="m 269.655,37.457 c -0.032,0.044 -0.047,0.081 -0.11,0.081 -0.148,0 -0.416,-0.365 -1.047,-0.365 -0.794,0 -1.703,0.785 -1.703,2.35 0,1.49 0.899,2.35 1.73,2.35 0.515,0 0.694,-0.229 0.851,-0.229 0.09,0 0.111,0.074 0.153,0.112 v -1.169 c -0.137,0.21 -0.342,0.637 -0.836,0.637 -0.72,0 -1.11,-0.786 -1.11,-1.763 0,-0.878 0.39,-1.639 1.068,-1.639 0.494,0 0.888,0.569 1.004,0.705 v -1.07"
                   style="fill:#656363;fill-opacity:1;fill-rule:nonzero;stroke:none"
                   id="path160"
                   inkscape:connector-curvature="0" /><path
                   d="m 270.912,41.391 c 0,0.253 -0.09,0.309 -0.169,0.389 h 1.126 C 271.79,41.7 271.7,41.644 271.7,41.391 v -1.447 h 1.536 v 1.447 c 0,0.253 -0.09,0.309 -0.169,0.389 h 1.125 c -0.078,-0.08 -0.168,-0.136 -0.168,-0.389 v -3.736 c 0,-0.247 0.095,-0.309 0.168,-0.389 h -1.125 c 0.069,0.08 0.169,0.142 0.169,0.389 v 1.639 H 271.7 v -1.639 c 0,-0.247 0.095,-0.309 0.169,-0.389 h -1.126 c 0.069,0.08 0.169,0.142 0.169,0.389 v 3.736"
                   style="fill:#656363;fill-opacity:1;fill-rule:nonzero;stroke:none"
                   id="path162"
                   inkscape:connector-curvature="0" /><path
                   d="m 275.559,41.391 c 0,0.253 -0.089,0.309 -0.168,0.389 h 2.566 v -0.866 c -0.111,0.118 -0.095,0.217 -0.463,0.217 h -1.146 v -1.218 h 1.062 c 0.305,0 0.3,0.08 0.384,0.191 v -1.032 c -0.111,0.142 -0.142,0.191 -0.384,0.191 h -1.062 v -1.348 h 1.236 c 0.368,0 0.352,0.099 0.462,0.217 v -0.866 h -2.655 c 0.074,0.08 0.168,0.136 0.168,0.389 v 3.736"
                   style="fill:#656363;fill-opacity:1;fill-rule:nonzero;stroke:none"
                   id="path164"
                   inkscape:connector-curvature="0" /></g></g><g
               id="g4787"
               transform="translate(-36.583187)"><path
                 inkscape:connector-curvature="0"
                 id="path166"
                 style="fill:#656363;fill-opacity:1;fill-rule:nonzero;stroke:none"
                 d="m 281.427,41.391 c 0,0.253 -0.089,0.309 -0.168,0.389 h 2.565 v -0.866 c -0.11,0.118 -0.094,0.217 -0.462,0.217 h -1.146 v -1.218 h 1.062 c 0.305,0 0.299,0.08 0.383,0.191 v -1.032 c -0.11,0.142 -0.142,0.191 -0.383,0.191 h -1.062 v -1.348 h 1.235 c 0.368,0 0.352,0.099 0.463,0.217 v -0.866 h -2.655 c 0.073,0.08 0.168,0.136 0.168,0.389 v 3.736" /><path
                 inkscape:connector-curvature="0"
                 id="path168"
                 style="fill:#656363;fill-opacity:1;fill-rule:nonzero;stroke:none"
                 d="m 285.906,41.131 h -0.757 c -0.289,0 -0.294,-0.179 -0.384,-0.278 v 0.927 h 3.071 v -0.927 c -0.09,0.099 -0.095,0.278 -0.384,0.278 h -0.757 v -3.476 c 0,-0.247 0.095,-0.309 0.168,-0.389 h -1.125 c 0.068,0.08 0.168,0.142 0.168,0.389 v 3.476" /></g></g></g></g></g></g></svg>